G04 (created by PCBNEW (25-Oct-2014 BZR 4029)-stable) date 2015年05月14日 星期四 19时18分23秒*
%MOIN*%
G04 Gerber Fmt 3.4, Leading zero omitted, Abs format*
%FSLAX34Y34*%
G01*
G70*
G90*
G04 APERTURE LIST*
%ADD10C,0.00590551*%
%ADD11R,0.035X0.055*%
%ADD12C,0.0472441*%
%ADD13C,0.035*%
%ADD14C,0.0314961*%
%ADD15C,0.01*%
%ADD16C,0.019685*%
G04 APERTURE END LIST*
G54D10*
G54D11*
X48620Y-22990D03*
X49370Y-22990D03*
G54D12*
X43919Y-18169D03*
X43919Y-18956D03*
X43919Y-19744D03*
X43919Y-20531D03*
X43919Y-21318D03*
X43919Y-22106D03*
X43919Y-22893D03*
X43919Y-23681D03*
X43919Y-24468D03*
X43919Y-25255D03*
X52580Y-24468D03*
X52580Y-25255D03*
X52580Y-23681D03*
X52580Y-22893D03*
X52580Y-22106D03*
X52580Y-21318D03*
X52580Y-20531D03*
X52580Y-19744D03*
X52580Y-18956D03*
X52580Y-18169D03*
G54D11*
X45287Y-26418D03*
X44537Y-26418D03*
X45305Y-25440D03*
X44555Y-25440D03*
X45275Y-27260D03*
X44525Y-27260D03*
G54D13*
X49365Y-22590D03*
G54D14*
X50300Y-20350D03*
X48725Y-20300D03*
X47300Y-25150D03*
X47600Y-21350D03*
G54D13*
X44334Y-26254D03*
G54D14*
X50750Y-21750D03*
X48750Y-27250D03*
X48750Y-26750D03*
X50000Y-21250D03*
X46000Y-19000D03*
X47500Y-20000D03*
X48050Y-21250D03*
X51200Y-21250D03*
G54D13*
X50414Y-22380D03*
X45275Y-24500D03*
X48625Y-22625D03*
X45695Y-24690D03*
X45615Y-27945D03*
G54D15*
X45287Y-26418D02*
X45287Y-25458D01*
X45287Y-25458D02*
X45305Y-25440D01*
X44525Y-27260D02*
X44320Y-27260D01*
X43919Y-26859D02*
X43919Y-25255D01*
X44320Y-27260D02*
X43919Y-26859D01*
X45305Y-25440D02*
X45305Y-25785D01*
X43919Y-25599D02*
X43919Y-25255D01*
X44240Y-25920D02*
X43919Y-25599D01*
X45170Y-25920D02*
X44240Y-25920D01*
X45305Y-25785D02*
X45170Y-25920D01*
X49370Y-22990D02*
X49370Y-22595D01*
X49370Y-22595D02*
X49365Y-22590D01*
X48725Y-20300D02*
X50250Y-20300D01*
X50250Y-20300D02*
X50300Y-20350D01*
X47600Y-21350D02*
X47600Y-20850D01*
X48725Y-20300D02*
X48825Y-20400D01*
X48150Y-20300D02*
X48725Y-20300D01*
X47600Y-20850D02*
X48150Y-20300D01*
X47600Y-21350D02*
X47600Y-24850D01*
X47600Y-24850D02*
X47300Y-25150D01*
X44537Y-26418D02*
X44498Y-26418D01*
X44498Y-26418D02*
X44334Y-26254D01*
X50750Y-26000D02*
X50750Y-21750D01*
X49750Y-27000D02*
X50750Y-26000D01*
X49000Y-27000D02*
X49750Y-27000D01*
X48750Y-27250D02*
X49000Y-27000D01*
X48750Y-26750D02*
X49500Y-26750D01*
X49500Y-26750D02*
X49750Y-26500D01*
X49750Y-26500D02*
X49750Y-21500D01*
X49750Y-21500D02*
X50000Y-21250D01*
X46000Y-19750D02*
X46000Y-19000D01*
X46250Y-20000D02*
X46000Y-19750D01*
X47500Y-20000D02*
X46250Y-20000D01*
X50600Y-21100D02*
X50550Y-21100D01*
X50550Y-21100D02*
X50225Y-20775D01*
X48100Y-21200D02*
X48050Y-21250D01*
X48100Y-21000D02*
X48100Y-21200D01*
X48325Y-20775D02*
X48100Y-21000D01*
X50225Y-20775D02*
X48325Y-20775D01*
X51050Y-21100D02*
X50600Y-21100D01*
X51200Y-21250D02*
X51050Y-21100D01*
X51213Y-18169D02*
X43919Y-18169D01*
X51832Y-18788D02*
X51213Y-18169D01*
X51832Y-21418D02*
X51832Y-18788D01*
X51536Y-21714D02*
X51832Y-21418D01*
X51212Y-21714D02*
X51536Y-21714D01*
X50890Y-21392D02*
X51212Y-21714D01*
X50666Y-21392D02*
X50890Y-21392D01*
X50442Y-21616D02*
X50666Y-21392D01*
X50442Y-22352D02*
X50442Y-21616D01*
X50414Y-22380D02*
X50442Y-22352D01*
X45275Y-24500D02*
X45100Y-24500D01*
X44555Y-25045D02*
X44555Y-25440D01*
X45100Y-24500D02*
X44555Y-25045D01*
X44400Y-18650D02*
X43919Y-18169D01*
X45275Y-24500D02*
X44400Y-23625D01*
X44400Y-23625D02*
X44400Y-18650D01*
X45615Y-27945D02*
X45425Y-27945D01*
X45275Y-27795D02*
X45275Y-27260D01*
X45425Y-27945D02*
X45275Y-27795D01*
X48620Y-22630D02*
X48620Y-22990D01*
X48625Y-22625D02*
X48620Y-22630D01*
G54D16*
X45695Y-27865D02*
X45695Y-24690D01*
X45615Y-27945D02*
X45695Y-27865D01*
M02*
