G04 (created by PCBNEW (25-Oct-2014 BZR 4029)-stable) date 2015年05月14日 星期四 19时18分23秒*
%MOIN*%
G04 Gerber Fmt 3.4, Leading zero omitted, Abs format*
%FSLAX34Y34*%
G01*
G70*
G90*
G04 APERTURE LIST*
%ADD10C,0.00590551*%
%ADD11R,0.016X0.05*%
%ADD12R,0.0197X0.0906*%
%ADD13R,0.0787X0.0984*%
%ADD14C,0.0354*%
%ADD15R,0.06X0.08*%
%ADD16R,0.035X0.055*%
%ADD17R,0.055X0.035*%
%ADD18R,0.0472X0.0472*%
%ADD19C,0.0472441*%
%ADD20R,0.03X0.02*%
G04 APERTURE END LIST*
G54D10*
G54D11*
X46850Y-19100D03*
X47100Y-19100D03*
X47360Y-19100D03*
X47620Y-19100D03*
X47870Y-19100D03*
X48130Y-19100D03*
X48390Y-19100D03*
X48640Y-19100D03*
X48900Y-19100D03*
X49150Y-19100D03*
X49410Y-19100D03*
X49670Y-19100D03*
X49920Y-19100D03*
X50180Y-19100D03*
X50180Y-21900D03*
X49920Y-21900D03*
X49680Y-21900D03*
X49410Y-21900D03*
X49150Y-21900D03*
X48900Y-21900D03*
X48640Y-21900D03*
X48390Y-21900D03*
X48130Y-21900D03*
X47870Y-21900D03*
X47620Y-21900D03*
X47360Y-21900D03*
X47100Y-21900D03*
X46850Y-21900D03*
G54D12*
X48880Y-25142D03*
X48565Y-25142D03*
X48250Y-25142D03*
X47935Y-25142D03*
X47620Y-25142D03*
G54D13*
X50002Y-25181D03*
X50002Y-27346D03*
X46498Y-25181D03*
X46498Y-27346D03*
G54D14*
X49116Y-26165D03*
X47384Y-26165D03*
G54D15*
X48600Y-24000D03*
X49900Y-24000D03*
G54D16*
X49375Y-23000D03*
X50125Y-23000D03*
G54D17*
X51000Y-20625D03*
X51000Y-19875D03*
G54D16*
X45625Y-19750D03*
X44875Y-19750D03*
X45625Y-19000D03*
X44875Y-19000D03*
G54D17*
X51250Y-23625D03*
X51250Y-24375D03*
G54D16*
X46375Y-23000D03*
X47125Y-23000D03*
X48625Y-23000D03*
X47875Y-23000D03*
G54D18*
X51250Y-22913D03*
X51250Y-22087D03*
X45250Y-22913D03*
X45250Y-22087D03*
X47663Y-24000D03*
X46837Y-24000D03*
G54D19*
X43919Y-18169D03*
X43919Y-18956D03*
X43919Y-19744D03*
X43919Y-20531D03*
X43919Y-21318D03*
X43919Y-22106D03*
X43919Y-22893D03*
X43919Y-23681D03*
X43919Y-24468D03*
X43919Y-25255D03*
X52580Y-24468D03*
X52580Y-25255D03*
X52580Y-23681D03*
X52580Y-22893D03*
X52580Y-22106D03*
X52580Y-21318D03*
X52580Y-20531D03*
X52580Y-19744D03*
X52580Y-18956D03*
X52580Y-18169D03*
G54D20*
X45650Y-25100D03*
X45650Y-25850D03*
X44650Y-25100D03*
X45650Y-25475D03*
X44650Y-25850D03*
M02*
