M48
;DRILL file {Pcbnew (25-Oct-2014 BZR 4029)-stable} date 2015年05月14日 星期四 19时18分31秒
;FORMAT={-:-/ absolute / metric / decimal}
FMAT,2
METRIC,TZ
T1C0.500
T2C0.635
T3C0.750
%
G90
G05
M71
T1
X116.84Y-48.26
X120.142Y-63.881
X120.65Y-50.8
X120.904Y-54.229
X122.047Y-53.975
X123.761Y-51.562
X123.825Y-67.945
X123.825Y-69.215
X127.Y-53.975
X127.762Y-51.689
X128.905Y-55.245
X130.048Y-53.975
T2
X112.608Y-66.685
X114.998Y-62.23
X115.862Y-70.98
X116.065Y-62.713
X123.507Y-57.467
X125.387Y-57.379
X128.052Y-56.845
T3
X111.555Y-46.15
X111.555Y-48.15
X111.555Y-50.15
X111.555Y-52.15
X111.555Y-54.15
X111.555Y-56.15
X111.555Y-58.15
X111.555Y-60.15
X111.555Y-62.15
X111.555Y-64.15
X133.555Y-46.15
X133.555Y-48.15
X133.555Y-50.15
X133.555Y-52.15
X133.555Y-54.15
X133.555Y-56.15
X133.555Y-58.15
X133.555Y-60.15
X133.555Y-62.15
X133.555Y-64.15
T0
M30
