ply
format ascii 1.0
element vertex 9
property float x
property float y
property float z
property uchar diffuse_red
property uchar diffuse_green
property uchar diffuse_blue
end_header
0.0193252 -8.09368e-005 -0.00229973 0 255 0
-0.781804 0.574291 0.051206 255 0 255
-0.284776 -0.000191203 0.640504 255 0 255
-0.261196 -0.0750317 0.771487 255 0 255
-0.00682135 0.00137498 -0.470755 255 0 255
-1.48127 0.137359 -1.45392 255 0 255
-2.12745 0.000901494 -1.93751 255 0 255
-1.43748 -0.0197696 -1.84646 0 255 0
-1.16992 -0.246315 -1.64822 255 0 255
