ply
format ascii 1.0
element vertex 11
property float x
property float y
property float z
property uchar diffuse_red
property uchar diffuse_green
property uchar diffuse_blue
end_header
-0.0568692 0.00115028 -0.0503862 255 0 255
-0.880275 -9.62988e-009 0.00281952 255 0 255
-0.535327 0.758195 -1.61401 255 0 255
-1.6527 0.847802 -1.42297 0 255 0
-1.03799 0.819519 -2.72467 255 0 255
-0.864214 -9.16856e-008 -4.00756 0 255 0
0.989645 0.980561 -1.50052 255 0 255
-2.72877 6.7799e-008 -1.72461 255 0 255
1.9495 -0.025068 -2.02319 0 255 0
1.81839 -1.27893 -2.17246 0 255 0
-3.66394 -0.747808 -2.53209 255 0 255
