G04 (created by PCBNEW (25-Oct-2014 BZR 4029)-stable) date 2015年05月14日 星期四 14时54分29秒*
%MOIN*%
G04 Gerber Fmt 3.4, Leading zero omitted, Abs format*
%FSLAX34Y34*%
G01*
G70*
G90*
G04 APERTURE LIST*
%ADD10C,0.00590551*%
%ADD11R,0.016X0.05*%
%ADD12R,0.0197X0.0906*%
%ADD13R,0.0787X0.0984*%
%ADD14R,0.06X0.08*%
%ADD15R,0.035X0.055*%
%ADD16R,0.055X0.035*%
%ADD17R,0.0472X0.0472*%
%ADD18C,0.0472441*%
%ADD19C,0.0314961*%
%ADD20C,0.01*%
%ADD21C,0.019685*%
G04 APERTURE END LIST*
G54D10*
G54D11*
X46850Y-19100D03*
X47100Y-19100D03*
X47360Y-19100D03*
X47620Y-19100D03*
X47870Y-19100D03*
X48130Y-19100D03*
X48390Y-19100D03*
X48640Y-19100D03*
X48900Y-19100D03*
X49150Y-19100D03*
X49410Y-19100D03*
X49670Y-19100D03*
X49920Y-19100D03*
X50180Y-19100D03*
X50180Y-21900D03*
X49920Y-21900D03*
X49680Y-21900D03*
X49410Y-21900D03*
X49150Y-21900D03*
X48900Y-21900D03*
X48640Y-21900D03*
X48390Y-21900D03*
X48130Y-21900D03*
X47870Y-21900D03*
X47620Y-21900D03*
X47360Y-21900D03*
X47100Y-21900D03*
X46850Y-21900D03*
G54D12*
X48880Y-25142D03*
X48565Y-25142D03*
X48250Y-25142D03*
X47935Y-25142D03*
X47620Y-25142D03*
G54D13*
X50002Y-25181D03*
X50002Y-27346D03*
X46498Y-25181D03*
X46498Y-27346D03*
G54D14*
X48600Y-24000D03*
X49900Y-24000D03*
G54D15*
X47625Y-18250D03*
X48375Y-18250D03*
X49375Y-23000D03*
X50125Y-23000D03*
G54D16*
X51000Y-20625D03*
X51000Y-19875D03*
G54D15*
X45625Y-19750D03*
X44875Y-19750D03*
X45625Y-19000D03*
X44875Y-19000D03*
G54D16*
X51250Y-23625D03*
X51250Y-24375D03*
G54D15*
X46375Y-23000D03*
X47125Y-23000D03*
X48625Y-23000D03*
X47875Y-23000D03*
G54D17*
X51250Y-22913D03*
X51250Y-22087D03*
X45250Y-22913D03*
X45250Y-22087D03*
X47663Y-24000D03*
X46837Y-24000D03*
G54D18*
X43919Y-18169D03*
X43919Y-18956D03*
X43919Y-19744D03*
X43919Y-20531D03*
X43919Y-21318D03*
X43919Y-22106D03*
X43919Y-22893D03*
X43919Y-23681D03*
X43919Y-24468D03*
X43919Y-25255D03*
X52580Y-24468D03*
X52580Y-25255D03*
X52580Y-23681D03*
X52580Y-22893D03*
X52580Y-22106D03*
X52580Y-21318D03*
X52580Y-20531D03*
X52580Y-19744D03*
X52580Y-18956D03*
X52580Y-18169D03*
G54D19*
X48050Y-21250D03*
X51200Y-21250D03*
X48750Y-26750D03*
X50000Y-21250D03*
X46000Y-19000D03*
X47500Y-20000D03*
X50750Y-21750D03*
X48750Y-27250D03*
X50300Y-20350D03*
X48725Y-20300D03*
X47300Y-25150D03*
X47600Y-21350D03*
X51000Y-18300D03*
G54D20*
X46837Y-24000D02*
X45175Y-24000D01*
X45175Y-24000D02*
X43919Y-25255D01*
X48390Y-21900D02*
X48390Y-21040D01*
X45250Y-21750D02*
X46150Y-20850D01*
X46150Y-20850D02*
X48200Y-20850D01*
X45250Y-21750D02*
X45250Y-22087D01*
X48390Y-21040D02*
X48200Y-20850D01*
X51250Y-23625D02*
X51250Y-22913D01*
X46375Y-23000D02*
X45337Y-23000D01*
X45337Y-23000D02*
X45250Y-22913D01*
X48130Y-21330D02*
X48130Y-21900D01*
X48050Y-21250D02*
X48130Y-21330D01*
X51250Y-22087D02*
X51250Y-21300D01*
X51250Y-21300D02*
X51200Y-21250D01*
X47663Y-24000D02*
X47663Y-23212D01*
X47663Y-23212D02*
X47875Y-23000D01*
X43919Y-19744D02*
X44869Y-19744D01*
X44869Y-19744D02*
X44875Y-19750D01*
X43919Y-18956D02*
X44831Y-18956D01*
X44831Y-18956D02*
X44875Y-19000D01*
G54D21*
X48880Y-25142D02*
X48880Y-24280D01*
X48880Y-24280D02*
X48600Y-24000D01*
G54D20*
X48880Y-24280D02*
X48600Y-24000D01*
X49920Y-21900D02*
X49920Y-21330D01*
X48565Y-26565D02*
X48750Y-26750D01*
X48565Y-26565D02*
X48565Y-25142D01*
X49920Y-21330D02*
X50000Y-21250D01*
X47870Y-19630D02*
X47500Y-20000D01*
X47870Y-19100D02*
X47870Y-19630D01*
X46000Y-19000D02*
X45625Y-19000D01*
X45625Y-19000D02*
X45500Y-19000D01*
X45625Y-19750D02*
X46000Y-19750D01*
X46650Y-19100D02*
X46850Y-19100D01*
X46000Y-19750D02*
X46650Y-19100D01*
X48250Y-25142D02*
X48250Y-26750D01*
X50180Y-21820D02*
X50180Y-21900D01*
X50750Y-21750D02*
X50180Y-21820D01*
X48250Y-26750D02*
X48750Y-27250D01*
X49680Y-21900D02*
X49680Y-22430D01*
X50125Y-22875D02*
X49750Y-22500D01*
X50125Y-22875D02*
X50125Y-23000D01*
X49680Y-22430D02*
X49750Y-22500D01*
X48390Y-20225D02*
X48400Y-20225D01*
X48663Y-20488D02*
X48663Y-20488D01*
X48400Y-20225D02*
X48663Y-20488D01*
X47308Y-25142D02*
X47620Y-25142D01*
X47300Y-25150D02*
X47308Y-25142D01*
X47620Y-21900D02*
X47620Y-21370D01*
X47620Y-21370D02*
X47600Y-21350D01*
X48390Y-19100D02*
X48390Y-20225D01*
X48390Y-20225D02*
X48390Y-20240D01*
X50300Y-20350D02*
X50300Y-20325D01*
X50300Y-20325D02*
X50300Y-20350D01*
X50300Y-20350D02*
X50300Y-20325D01*
X47360Y-21900D02*
X47620Y-21900D01*
X51000Y-20625D02*
X50300Y-20325D01*
X50300Y-20325D02*
X49875Y-20625D01*
X49410Y-21090D02*
X49410Y-21900D01*
X49875Y-20625D02*
X49410Y-21090D01*
X48665Y-20390D02*
X48663Y-20488D01*
X48663Y-20488D02*
X48640Y-21900D01*
X48375Y-18250D02*
X48375Y-19085D01*
X48375Y-19085D02*
X48390Y-19100D01*
X47935Y-25142D02*
X47620Y-25142D01*
X49410Y-21900D02*
X49410Y-22965D01*
X49410Y-22965D02*
X49375Y-23000D01*
G54D21*
X51000Y-19875D02*
X51000Y-18300D01*
X49150Y-20850D02*
X49150Y-21550D01*
X51000Y-19875D02*
X50125Y-19875D01*
X50125Y-19875D02*
X49150Y-20850D01*
X51250Y-24375D02*
X51725Y-24375D01*
X51800Y-20675D02*
X51000Y-19875D01*
X51800Y-24300D02*
X51800Y-20675D01*
X51725Y-24375D02*
X51800Y-24300D01*
G54D20*
X49150Y-21900D02*
X49150Y-21550D01*
X47125Y-23000D02*
X47125Y-22625D01*
X48625Y-22625D02*
X48625Y-23000D01*
X48500Y-22500D02*
X48625Y-22625D01*
X47250Y-22500D02*
X48500Y-22500D01*
X47125Y-22625D02*
X47250Y-22500D01*
G54D21*
X49900Y-24000D02*
X50000Y-24000D01*
X50375Y-24375D02*
X51250Y-24375D01*
X50000Y-24000D02*
X50375Y-24375D01*
G54D20*
X43919Y-18169D02*
X47544Y-18169D01*
X47544Y-18169D02*
X47625Y-18250D01*
X47625Y-18250D02*
X47625Y-19095D01*
X47625Y-19095D02*
X47620Y-19100D01*
X48900Y-21900D02*
X48900Y-22725D01*
X48900Y-22725D02*
X48625Y-23000D01*
X48900Y-21900D02*
X49150Y-21900D01*
M02*
