G04 (created by PCBNEW (25-Oct-2014 BZR 4029)-stable) date 2015年05月14日 星期四 14时54分29秒*
%MOIN*%
G04 Gerber Fmt 3.4, Leading zero omitted, Abs format*
%FSLAX34Y34*%
G01*
G70*
G90*
G04 APERTURE LIST*
%ADD10C,0.00590551*%
%ADD11C,0.005*%
%ADD12C,0.015*%
%ADD13C,0.0039*%
%ADD14C,0.0026*%
%ADD15C,0.004*%
%ADD16C,0.002*%
%ADD17C,0.008*%
%ADD18C,0.0043*%
G04 APERTURE END LIST*
G54D10*
G54D11*
X46841Y-19650D02*
G75*
G03X46841Y-19650I-141J0D01*
G74*
G01*
X46500Y-20750D02*
X46800Y-20750D01*
X46800Y-20750D02*
X46800Y-20250D01*
X46800Y-20250D02*
X46500Y-20250D01*
X50550Y-19450D02*
X46500Y-19450D01*
X46500Y-21550D02*
X50550Y-21550D01*
X46500Y-21550D02*
X46500Y-19450D01*
X50550Y-21550D02*
X50550Y-19450D01*
G54D12*
X49766Y-27917D02*
X46734Y-27917D01*
X49766Y-28311D02*
X46734Y-28311D01*
X46734Y-28311D02*
X46734Y-24689D01*
X46734Y-24689D02*
X49766Y-24689D01*
X49766Y-24689D02*
X49766Y-28311D01*
G54D11*
X48250Y-24450D02*
X48250Y-23550D01*
X48250Y-23550D02*
X48900Y-23550D01*
X49600Y-24450D02*
X50250Y-24450D01*
X50250Y-24450D02*
X50250Y-23550D01*
X50250Y-23550D02*
X49600Y-23550D01*
X48900Y-24450D02*
X48250Y-24450D01*
G54D13*
X47400Y-17950D02*
G75*
G03X47400Y-17950I-50J0D01*
G74*
G01*
X47800Y-17950D02*
X47400Y-17950D01*
X47400Y-17950D02*
X47400Y-18550D01*
X47400Y-18550D02*
X47800Y-18550D01*
X48200Y-18550D02*
X48600Y-18550D01*
X48600Y-18550D02*
X48600Y-17950D01*
X48600Y-17950D02*
X48200Y-17950D01*
X49150Y-22700D02*
G75*
G03X49150Y-22700I-50J0D01*
G74*
G01*
X49550Y-22700D02*
X49150Y-22700D01*
X49150Y-22700D02*
X49150Y-23300D01*
X49150Y-23300D02*
X49550Y-23300D01*
X49950Y-23300D02*
X50350Y-23300D01*
X50350Y-23300D02*
X50350Y-22700D01*
X50350Y-22700D02*
X49950Y-22700D01*
X50750Y-20900D02*
G75*
G03X50750Y-20900I-50J0D01*
G74*
G01*
X50700Y-20450D02*
X50700Y-20850D01*
X50700Y-20850D02*
X51300Y-20850D01*
X51300Y-20850D02*
X51300Y-20450D01*
X51300Y-20050D02*
X51300Y-19650D01*
X51300Y-19650D02*
X50700Y-19650D01*
X50700Y-19650D02*
X50700Y-20050D01*
X45950Y-20050D02*
G75*
G03X45950Y-20050I-50J0D01*
G74*
G01*
X45450Y-20050D02*
X45850Y-20050D01*
X45850Y-20050D02*
X45850Y-19450D01*
X45850Y-19450D02*
X45450Y-19450D01*
X45050Y-19450D02*
X44650Y-19450D01*
X44650Y-19450D02*
X44650Y-20050D01*
X44650Y-20050D02*
X45050Y-20050D01*
X45950Y-19300D02*
G75*
G03X45950Y-19300I-50J0D01*
G74*
G01*
X45450Y-19300D02*
X45850Y-19300D01*
X45850Y-19300D02*
X45850Y-18700D01*
X45850Y-18700D02*
X45450Y-18700D01*
X45050Y-18700D02*
X44650Y-18700D01*
X44650Y-18700D02*
X44650Y-19300D01*
X44650Y-19300D02*
X45050Y-19300D01*
X51600Y-23350D02*
G75*
G03X51600Y-23350I-50J0D01*
G74*
G01*
X51550Y-23800D02*
X51550Y-23400D01*
X51550Y-23400D02*
X50950Y-23400D01*
X50950Y-23400D02*
X50950Y-23800D01*
X50950Y-24200D02*
X50950Y-24600D01*
X50950Y-24600D02*
X51550Y-24600D01*
X51550Y-24600D02*
X51550Y-24200D01*
X46150Y-22700D02*
G75*
G03X46150Y-22700I-50J0D01*
G74*
G01*
X46550Y-22700D02*
X46150Y-22700D01*
X46150Y-22700D02*
X46150Y-23300D01*
X46150Y-23300D02*
X46550Y-23300D01*
X46950Y-23300D02*
X47350Y-23300D01*
X47350Y-23300D02*
X47350Y-22700D01*
X47350Y-22700D02*
X46950Y-22700D01*
X48950Y-23300D02*
G75*
G03X48950Y-23300I-50J0D01*
G74*
G01*
X48450Y-23300D02*
X48850Y-23300D01*
X48850Y-23300D02*
X48850Y-22700D01*
X48850Y-22700D02*
X48450Y-22700D01*
X48050Y-22700D02*
X47650Y-22700D01*
X47650Y-22700D02*
X47650Y-23300D01*
X47650Y-23300D02*
X48050Y-23300D01*
G54D14*
X51132Y-22304D02*
X51004Y-22304D01*
X51004Y-22304D02*
X51004Y-22107D01*
X51132Y-22107D02*
X51004Y-22107D01*
X51132Y-22304D02*
X51132Y-22107D01*
X51377Y-22304D02*
X51318Y-22304D01*
X51318Y-22304D02*
X51318Y-22205D01*
X51377Y-22205D02*
X51318Y-22205D01*
X51377Y-22304D02*
X51377Y-22205D01*
X51182Y-22304D02*
X51123Y-22304D01*
X51123Y-22304D02*
X51123Y-22205D01*
X51182Y-22205D02*
X51123Y-22205D01*
X51182Y-22304D02*
X51182Y-22205D01*
X51328Y-22304D02*
X51172Y-22304D01*
X51172Y-22304D02*
X51172Y-22235D01*
X51328Y-22235D02*
X51172Y-22235D01*
X51328Y-22304D02*
X51328Y-22235D01*
X51132Y-22893D02*
X51004Y-22893D01*
X51004Y-22893D02*
X51004Y-22696D01*
X51132Y-22696D02*
X51004Y-22696D01*
X51132Y-22893D02*
X51132Y-22696D01*
X51496Y-22893D02*
X51368Y-22893D01*
X51368Y-22893D02*
X51368Y-22696D01*
X51496Y-22696D02*
X51368Y-22696D01*
X51496Y-22893D02*
X51496Y-22696D01*
X51182Y-22795D02*
X51123Y-22795D01*
X51123Y-22795D02*
X51123Y-22696D01*
X51182Y-22696D02*
X51123Y-22696D01*
X51182Y-22795D02*
X51182Y-22696D01*
X51377Y-22795D02*
X51318Y-22795D01*
X51318Y-22795D02*
X51318Y-22696D01*
X51377Y-22696D02*
X51318Y-22696D01*
X51377Y-22795D02*
X51377Y-22696D01*
X51328Y-22765D02*
X51172Y-22765D01*
X51172Y-22765D02*
X51172Y-22696D01*
X51328Y-22696D02*
X51172Y-22696D01*
X51328Y-22765D02*
X51328Y-22696D01*
X51289Y-22500D02*
X51211Y-22500D01*
X51211Y-22500D02*
X51211Y-22422D01*
X51289Y-22422D02*
X51211Y-22422D01*
X51289Y-22500D02*
X51289Y-22422D01*
X51486Y-22304D02*
X51368Y-22304D01*
X51368Y-22304D02*
X51368Y-22186D01*
X51486Y-22186D02*
X51368Y-22186D01*
X51486Y-22304D02*
X51486Y-22186D01*
X51496Y-22136D02*
X51407Y-22136D01*
X51407Y-22136D02*
X51407Y-22107D01*
X51496Y-22107D02*
X51407Y-22107D01*
X51496Y-22136D02*
X51496Y-22107D01*
G54D15*
X51024Y-22294D02*
X51024Y-22706D01*
X51476Y-22696D02*
X51476Y-22136D01*
G54D16*
X51455Y-22166D02*
G75*
G03X51455Y-22166I-28J0D01*
G74*
G01*
G54D15*
X51387Y-22107D02*
G75*
G02X51113Y-22107I-137J0D01*
G74*
G01*
X51113Y-22893D02*
G75*
G02X51387Y-22893I137J0D01*
G74*
G01*
G54D14*
X45132Y-22304D02*
X45004Y-22304D01*
X45004Y-22304D02*
X45004Y-22107D01*
X45132Y-22107D02*
X45004Y-22107D01*
X45132Y-22304D02*
X45132Y-22107D01*
X45377Y-22304D02*
X45318Y-22304D01*
X45318Y-22304D02*
X45318Y-22205D01*
X45377Y-22205D02*
X45318Y-22205D01*
X45377Y-22304D02*
X45377Y-22205D01*
X45182Y-22304D02*
X45123Y-22304D01*
X45123Y-22304D02*
X45123Y-22205D01*
X45182Y-22205D02*
X45123Y-22205D01*
X45182Y-22304D02*
X45182Y-22205D01*
X45328Y-22304D02*
X45172Y-22304D01*
X45172Y-22304D02*
X45172Y-22235D01*
X45328Y-22235D02*
X45172Y-22235D01*
X45328Y-22304D02*
X45328Y-22235D01*
X45132Y-22893D02*
X45004Y-22893D01*
X45004Y-22893D02*
X45004Y-22696D01*
X45132Y-22696D02*
X45004Y-22696D01*
X45132Y-22893D02*
X45132Y-22696D01*
X45496Y-22893D02*
X45368Y-22893D01*
X45368Y-22893D02*
X45368Y-22696D01*
X45496Y-22696D02*
X45368Y-22696D01*
X45496Y-22893D02*
X45496Y-22696D01*
X45182Y-22795D02*
X45123Y-22795D01*
X45123Y-22795D02*
X45123Y-22696D01*
X45182Y-22696D02*
X45123Y-22696D01*
X45182Y-22795D02*
X45182Y-22696D01*
X45377Y-22795D02*
X45318Y-22795D01*
X45318Y-22795D02*
X45318Y-22696D01*
X45377Y-22696D02*
X45318Y-22696D01*
X45377Y-22795D02*
X45377Y-22696D01*
X45328Y-22765D02*
X45172Y-22765D01*
X45172Y-22765D02*
X45172Y-22696D01*
X45328Y-22696D02*
X45172Y-22696D01*
X45328Y-22765D02*
X45328Y-22696D01*
X45289Y-22500D02*
X45211Y-22500D01*
X45211Y-22500D02*
X45211Y-22422D01*
X45289Y-22422D02*
X45211Y-22422D01*
X45289Y-22500D02*
X45289Y-22422D01*
X45486Y-22304D02*
X45368Y-22304D01*
X45368Y-22304D02*
X45368Y-22186D01*
X45486Y-22186D02*
X45368Y-22186D01*
X45486Y-22304D02*
X45486Y-22186D01*
X45496Y-22136D02*
X45407Y-22136D01*
X45407Y-22136D02*
X45407Y-22107D01*
X45496Y-22107D02*
X45407Y-22107D01*
X45496Y-22136D02*
X45496Y-22107D01*
G54D15*
X45024Y-22294D02*
X45024Y-22706D01*
X45476Y-22696D02*
X45476Y-22136D01*
G54D16*
X45455Y-22166D02*
G75*
G03X45455Y-22166I-28J0D01*
G74*
G01*
G54D15*
X45387Y-22107D02*
G75*
G02X45113Y-22107I-137J0D01*
G74*
G01*
X45113Y-22893D02*
G75*
G02X45387Y-22893I137J0D01*
G74*
G01*
G54D14*
X47054Y-24118D02*
X47054Y-24246D01*
X47054Y-24246D02*
X46857Y-24246D01*
X46857Y-24118D02*
X46857Y-24246D01*
X47054Y-24118D02*
X46857Y-24118D01*
X47054Y-23873D02*
X47054Y-23932D01*
X47054Y-23932D02*
X46955Y-23932D01*
X46955Y-23873D02*
X46955Y-23932D01*
X47054Y-23873D02*
X46955Y-23873D01*
X47054Y-24068D02*
X47054Y-24127D01*
X47054Y-24127D02*
X46955Y-24127D01*
X46955Y-24068D02*
X46955Y-24127D01*
X47054Y-24068D02*
X46955Y-24068D01*
X47054Y-23922D02*
X47054Y-24078D01*
X47054Y-24078D02*
X46985Y-24078D01*
X46985Y-23922D02*
X46985Y-24078D01*
X47054Y-23922D02*
X46985Y-23922D01*
X47643Y-24118D02*
X47643Y-24246D01*
X47643Y-24246D02*
X47446Y-24246D01*
X47446Y-24118D02*
X47446Y-24246D01*
X47643Y-24118D02*
X47446Y-24118D01*
X47643Y-23754D02*
X47643Y-23882D01*
X47643Y-23882D02*
X47446Y-23882D01*
X47446Y-23754D02*
X47446Y-23882D01*
X47643Y-23754D02*
X47446Y-23754D01*
X47545Y-24068D02*
X47545Y-24127D01*
X47545Y-24127D02*
X47446Y-24127D01*
X47446Y-24068D02*
X47446Y-24127D01*
X47545Y-24068D02*
X47446Y-24068D01*
X47545Y-23873D02*
X47545Y-23932D01*
X47545Y-23932D02*
X47446Y-23932D01*
X47446Y-23873D02*
X47446Y-23932D01*
X47545Y-23873D02*
X47446Y-23873D01*
X47515Y-23922D02*
X47515Y-24078D01*
X47515Y-24078D02*
X47446Y-24078D01*
X47446Y-23922D02*
X47446Y-24078D01*
X47515Y-23922D02*
X47446Y-23922D01*
X47250Y-23961D02*
X47250Y-24039D01*
X47250Y-24039D02*
X47172Y-24039D01*
X47172Y-23961D02*
X47172Y-24039D01*
X47250Y-23961D02*
X47172Y-23961D01*
X47054Y-23764D02*
X47054Y-23882D01*
X47054Y-23882D02*
X46936Y-23882D01*
X46936Y-23764D02*
X46936Y-23882D01*
X47054Y-23764D02*
X46936Y-23764D01*
X46886Y-23754D02*
X46886Y-23843D01*
X46886Y-23843D02*
X46857Y-23843D01*
X46857Y-23754D02*
X46857Y-23843D01*
X46886Y-23754D02*
X46857Y-23754D01*
G54D15*
X47044Y-24226D02*
X47456Y-24226D01*
X47446Y-23774D02*
X46886Y-23774D01*
G54D16*
X46944Y-23823D02*
G75*
G03X46944Y-23823I-28J0D01*
G74*
G01*
G54D15*
X46857Y-23863D02*
G75*
G02X46857Y-24137I0J-137D01*
G74*
G01*
X47643Y-24137D02*
G75*
G02X47643Y-23863I0J137D01*
G74*
G01*
G54D11*
X48778Y-20921D02*
X48778Y-21164D01*
X48764Y-21192D01*
X48750Y-21207D01*
X48721Y-21221D01*
X48664Y-21221D01*
X48635Y-21207D01*
X48621Y-21192D01*
X48607Y-21164D01*
X48607Y-20921D01*
X48307Y-21221D02*
X48478Y-21221D01*
X48392Y-21221D02*
X48392Y-20921D01*
X48421Y-20964D01*
X48450Y-20992D01*
X48478Y-21007D01*
X49271Y-20014D02*
X49371Y-20014D01*
X49371Y-20171D02*
X49371Y-19871D01*
X49228Y-19871D01*
X49157Y-19871D02*
X48985Y-19871D01*
X49071Y-20171D02*
X49071Y-19871D01*
X48899Y-19900D02*
X48885Y-19885D01*
X48857Y-19871D01*
X48785Y-19871D01*
X48757Y-19885D01*
X48742Y-19900D01*
X48728Y-19928D01*
X48728Y-19957D01*
X48742Y-20000D01*
X48914Y-20171D01*
X48728Y-20171D01*
X48628Y-19871D02*
X48442Y-19871D01*
X48542Y-19985D01*
X48499Y-19985D01*
X48471Y-20000D01*
X48457Y-20014D01*
X48442Y-20042D01*
X48442Y-20114D01*
X48457Y-20142D01*
X48471Y-20157D01*
X48499Y-20171D01*
X48585Y-20171D01*
X48614Y-20157D01*
X48628Y-20142D01*
X48328Y-19900D02*
X48314Y-19885D01*
X48285Y-19871D01*
X48214Y-19871D01*
X48185Y-19885D01*
X48171Y-19900D01*
X48157Y-19928D01*
X48157Y-19957D01*
X48171Y-20000D01*
X48342Y-20171D01*
X48157Y-20171D01*
X47857Y-20171D02*
X47957Y-20028D01*
X48028Y-20171D02*
X48028Y-19871D01*
X47914Y-19871D01*
X47885Y-19885D01*
X47871Y-19900D01*
X47857Y-19928D01*
X47857Y-19971D01*
X47871Y-20000D01*
X47885Y-20014D01*
X47914Y-20028D01*
X48028Y-20028D01*
X47585Y-20171D02*
X47728Y-20171D01*
X47728Y-19871D01*
G54D17*
X45656Y-26014D02*
X45675Y-25995D01*
X45694Y-25938D01*
X45694Y-25900D01*
X45675Y-25842D01*
X45637Y-25804D01*
X45599Y-25785D01*
X45523Y-25766D01*
X45466Y-25766D01*
X45390Y-25785D01*
X45352Y-25804D01*
X45313Y-25842D01*
X45294Y-25900D01*
X45294Y-25938D01*
X45313Y-25995D01*
X45333Y-26014D01*
X45294Y-26261D02*
X45294Y-26338D01*
X45313Y-26376D01*
X45352Y-26414D01*
X45428Y-26433D01*
X45561Y-26433D01*
X45637Y-26414D01*
X45675Y-26376D01*
X45694Y-26338D01*
X45694Y-26261D01*
X45675Y-26223D01*
X45637Y-26185D01*
X45561Y-26166D01*
X45428Y-26166D01*
X45352Y-26185D01*
X45313Y-26223D01*
X45294Y-26261D01*
X45694Y-26604D02*
X45294Y-26604D01*
X45694Y-26833D01*
X45294Y-26833D01*
X45694Y-27233D02*
X45694Y-27004D01*
X45694Y-27119D02*
X45294Y-27119D01*
X45352Y-27080D01*
X45390Y-27042D01*
X45409Y-27004D01*
G54D11*
X49300Y-24092D02*
X49314Y-24107D01*
X49357Y-24121D01*
X49385Y-24121D01*
X49428Y-24107D01*
X49457Y-24078D01*
X49471Y-24050D01*
X49485Y-23992D01*
X49485Y-23950D01*
X49471Y-23892D01*
X49457Y-23864D01*
X49428Y-23835D01*
X49385Y-23821D01*
X49357Y-23821D01*
X49314Y-23835D01*
X49300Y-23850D01*
X49014Y-24121D02*
X49185Y-24121D01*
X49100Y-24121D02*
X49100Y-23821D01*
X49128Y-23864D01*
X49157Y-23892D01*
X49185Y-23907D01*
G54D18*
X48032Y-18435D02*
X48042Y-18445D01*
X48070Y-18454D01*
X48089Y-18454D01*
X48117Y-18445D01*
X48136Y-18426D01*
X48145Y-18407D01*
X48154Y-18370D01*
X48154Y-18342D01*
X48145Y-18304D01*
X48136Y-18285D01*
X48117Y-18267D01*
X48089Y-18257D01*
X48070Y-18257D01*
X48042Y-18267D01*
X48032Y-18276D01*
X47957Y-18276D02*
X47948Y-18267D01*
X47929Y-18257D01*
X47882Y-18257D01*
X47863Y-18267D01*
X47854Y-18276D01*
X47845Y-18295D01*
X47845Y-18314D01*
X47854Y-18342D01*
X47967Y-18454D01*
X47845Y-18454D01*
X48220Y-18179D02*
X48333Y-18179D01*
X48276Y-18179D02*
X48276Y-17982D01*
X48295Y-18010D01*
X48314Y-18029D01*
X48333Y-18039D01*
X48098Y-17982D02*
X48079Y-17982D01*
X48060Y-17992D01*
X48051Y-18001D01*
X48042Y-18020D01*
X48032Y-18057D01*
X48032Y-18104D01*
X48042Y-18142D01*
X48051Y-18160D01*
X48060Y-18170D01*
X48079Y-18179D01*
X48098Y-18179D01*
X48117Y-18170D01*
X48126Y-18160D01*
X48136Y-18142D01*
X48145Y-18104D01*
X48145Y-18057D01*
X48136Y-18020D01*
X48126Y-18001D01*
X48117Y-17992D01*
X48098Y-17982D01*
X47910Y-17982D02*
X47892Y-17982D01*
X47873Y-17992D01*
X47863Y-18001D01*
X47854Y-18020D01*
X47845Y-18057D01*
X47845Y-18104D01*
X47854Y-18142D01*
X47863Y-18160D01*
X47873Y-18170D01*
X47892Y-18179D01*
X47910Y-18179D01*
X47929Y-18170D01*
X47939Y-18160D01*
X47948Y-18142D01*
X47957Y-18104D01*
X47957Y-18057D01*
X47948Y-18020D01*
X47939Y-18001D01*
X47929Y-17992D01*
X47910Y-17982D01*
X47760Y-18048D02*
X47760Y-18179D01*
X47760Y-18067D02*
X47751Y-18057D01*
X47732Y-18048D01*
X47704Y-18048D01*
X47685Y-18057D01*
X47676Y-18076D01*
X47676Y-18179D01*
X49782Y-23185D02*
X49792Y-23195D01*
X49820Y-23204D01*
X49839Y-23204D01*
X49867Y-23195D01*
X49886Y-23176D01*
X49895Y-23157D01*
X49904Y-23120D01*
X49904Y-23092D01*
X49895Y-23054D01*
X49886Y-23035D01*
X49867Y-23017D01*
X49839Y-23007D01*
X49820Y-23007D01*
X49792Y-23017D01*
X49782Y-23026D01*
X49613Y-23073D02*
X49613Y-23204D01*
X49660Y-22998D02*
X49707Y-23139D01*
X49585Y-23139D01*
X49970Y-22929D02*
X50083Y-22929D01*
X50026Y-22929D02*
X50026Y-22732D01*
X50045Y-22760D01*
X50064Y-22779D01*
X50083Y-22789D01*
X49848Y-22732D02*
X49829Y-22732D01*
X49810Y-22742D01*
X49801Y-22751D01*
X49792Y-22770D01*
X49782Y-22807D01*
X49782Y-22854D01*
X49792Y-22892D01*
X49801Y-22910D01*
X49810Y-22920D01*
X49829Y-22929D01*
X49848Y-22929D01*
X49867Y-22920D01*
X49876Y-22910D01*
X49886Y-22892D01*
X49895Y-22854D01*
X49895Y-22807D01*
X49886Y-22770D01*
X49876Y-22751D01*
X49867Y-22742D01*
X49848Y-22732D01*
X49660Y-22732D02*
X49642Y-22732D01*
X49623Y-22742D01*
X49613Y-22751D01*
X49604Y-22770D01*
X49595Y-22807D01*
X49595Y-22854D01*
X49604Y-22892D01*
X49613Y-22910D01*
X49623Y-22920D01*
X49642Y-22929D01*
X49660Y-22929D01*
X49679Y-22920D01*
X49689Y-22910D01*
X49698Y-22892D01*
X49707Y-22854D01*
X49707Y-22807D01*
X49698Y-22770D01*
X49689Y-22751D01*
X49679Y-22742D01*
X49660Y-22732D01*
X49510Y-22798D02*
X49510Y-22929D01*
X49510Y-22817D02*
X49501Y-22807D01*
X49482Y-22798D01*
X49454Y-22798D01*
X49435Y-22807D01*
X49426Y-22826D01*
X49426Y-22929D01*
X51185Y-20217D02*
X51195Y-20207D01*
X51204Y-20179D01*
X51204Y-20160D01*
X51195Y-20132D01*
X51176Y-20113D01*
X51157Y-20104D01*
X51120Y-20095D01*
X51092Y-20095D01*
X51054Y-20104D01*
X51035Y-20113D01*
X51017Y-20132D01*
X51007Y-20160D01*
X51007Y-20179D01*
X51017Y-20207D01*
X51026Y-20217D01*
X51007Y-20282D02*
X51007Y-20404D01*
X51082Y-20339D01*
X51082Y-20367D01*
X51092Y-20386D01*
X51101Y-20395D01*
X51120Y-20404D01*
X51167Y-20404D01*
X51185Y-20395D01*
X51195Y-20386D01*
X51204Y-20367D01*
X51204Y-20310D01*
X51195Y-20292D01*
X51185Y-20282D01*
X50910Y-20310D02*
X50920Y-20301D01*
X50929Y-20273D01*
X50929Y-20254D01*
X50920Y-20226D01*
X50901Y-20207D01*
X50882Y-20198D01*
X50845Y-20189D01*
X50817Y-20189D01*
X50779Y-20198D01*
X50760Y-20207D01*
X50742Y-20226D01*
X50732Y-20254D01*
X50732Y-20273D01*
X50742Y-20301D01*
X50751Y-20310D01*
X45282Y-19704D02*
X45348Y-19610D01*
X45395Y-19704D02*
X45395Y-19507D01*
X45320Y-19507D01*
X45301Y-19517D01*
X45292Y-19526D01*
X45282Y-19545D01*
X45282Y-19573D01*
X45292Y-19592D01*
X45301Y-19601D01*
X45320Y-19610D01*
X45395Y-19610D01*
X45095Y-19704D02*
X45207Y-19704D01*
X45151Y-19704D02*
X45151Y-19507D01*
X45170Y-19535D01*
X45189Y-19554D01*
X45207Y-19564D01*
X45292Y-19979D02*
X45404Y-19979D01*
X45348Y-19979D02*
X45348Y-19782D01*
X45367Y-19810D01*
X45386Y-19829D01*
X45404Y-19839D01*
X45207Y-19979D02*
X45207Y-19782D01*
X45095Y-19979D02*
X45179Y-19867D01*
X45095Y-19782D02*
X45207Y-19895D01*
X45282Y-18954D02*
X45348Y-18860D01*
X45395Y-18954D02*
X45395Y-18757D01*
X45320Y-18757D01*
X45301Y-18767D01*
X45292Y-18776D01*
X45282Y-18795D01*
X45282Y-18823D01*
X45292Y-18842D01*
X45301Y-18851D01*
X45320Y-18860D01*
X45395Y-18860D01*
X45207Y-18776D02*
X45198Y-18767D01*
X45179Y-18757D01*
X45132Y-18757D01*
X45113Y-18767D01*
X45104Y-18776D01*
X45095Y-18795D01*
X45095Y-18814D01*
X45104Y-18842D01*
X45217Y-18954D01*
X45095Y-18954D01*
X45292Y-19229D02*
X45404Y-19229D01*
X45348Y-19229D02*
X45348Y-19032D01*
X45367Y-19060D01*
X45386Y-19079D01*
X45404Y-19089D01*
X45207Y-19229D02*
X45207Y-19032D01*
X45095Y-19229D02*
X45179Y-19117D01*
X45095Y-19032D02*
X45207Y-19145D01*
X51204Y-23967D02*
X51110Y-23901D01*
X51204Y-23854D02*
X51007Y-23854D01*
X51007Y-23929D01*
X51017Y-23948D01*
X51026Y-23957D01*
X51045Y-23967D01*
X51073Y-23967D01*
X51092Y-23957D01*
X51101Y-23948D01*
X51110Y-23929D01*
X51110Y-23854D01*
X51007Y-24032D02*
X51007Y-24154D01*
X51082Y-24089D01*
X51082Y-24117D01*
X51092Y-24136D01*
X51101Y-24145D01*
X51120Y-24154D01*
X51167Y-24154D01*
X51185Y-24145D01*
X51195Y-24136D01*
X51204Y-24117D01*
X51204Y-24060D01*
X51195Y-24042D01*
X51185Y-24032D01*
X51479Y-24060D02*
X51385Y-23995D01*
X51479Y-23948D02*
X51282Y-23948D01*
X51282Y-24023D01*
X51292Y-24042D01*
X51301Y-24051D01*
X51320Y-24060D01*
X51348Y-24060D01*
X51367Y-24051D01*
X51376Y-24042D01*
X51385Y-24023D01*
X51385Y-23948D01*
X46782Y-23204D02*
X46848Y-23110D01*
X46895Y-23204D02*
X46895Y-23007D01*
X46820Y-23007D01*
X46801Y-23017D01*
X46792Y-23026D01*
X46782Y-23045D01*
X46782Y-23073D01*
X46792Y-23092D01*
X46801Y-23101D01*
X46820Y-23110D01*
X46895Y-23110D01*
X46613Y-23073D02*
X46613Y-23204D01*
X46660Y-22998D02*
X46707Y-23139D01*
X46585Y-23139D01*
X46689Y-22929D02*
X46754Y-22835D01*
X46801Y-22929D02*
X46801Y-22732D01*
X46726Y-22732D01*
X46707Y-22742D01*
X46698Y-22751D01*
X46689Y-22770D01*
X46689Y-22798D01*
X46698Y-22817D01*
X46707Y-22826D01*
X46726Y-22835D01*
X46801Y-22835D01*
X48282Y-22954D02*
X48348Y-22860D01*
X48395Y-22954D02*
X48395Y-22757D01*
X48320Y-22757D01*
X48301Y-22767D01*
X48292Y-22776D01*
X48282Y-22795D01*
X48282Y-22823D01*
X48292Y-22842D01*
X48301Y-22851D01*
X48320Y-22860D01*
X48395Y-22860D01*
X48104Y-22757D02*
X48198Y-22757D01*
X48207Y-22851D01*
X48198Y-22842D01*
X48179Y-22832D01*
X48132Y-22832D01*
X48113Y-22842D01*
X48104Y-22851D01*
X48095Y-22870D01*
X48095Y-22917D01*
X48104Y-22935D01*
X48113Y-22945D01*
X48132Y-22954D01*
X48179Y-22954D01*
X48198Y-22945D01*
X48207Y-22935D01*
X48292Y-23229D02*
X48404Y-23229D01*
X48348Y-23229D02*
X48348Y-23032D01*
X48367Y-23060D01*
X48386Y-23079D01*
X48404Y-23089D01*
X48207Y-23229D02*
X48207Y-23032D01*
X48095Y-23229D02*
X48179Y-23117D01*
X48095Y-23032D02*
X48207Y-23145D01*
G54D11*
X51871Y-22278D02*
X51571Y-22278D01*
X51571Y-22350D01*
X51585Y-22392D01*
X51614Y-22421D01*
X51642Y-22435D01*
X51700Y-22450D01*
X51742Y-22450D01*
X51800Y-22435D01*
X51828Y-22421D01*
X51857Y-22392D01*
X51871Y-22350D01*
X51871Y-22278D01*
X51871Y-22735D02*
X51871Y-22564D01*
X51871Y-22650D02*
X51571Y-22650D01*
X51614Y-22621D01*
X51642Y-22592D01*
X51657Y-22564D01*
X50871Y-21900D02*
X50871Y-21757D01*
X50571Y-21757D01*
X50714Y-22000D02*
X50714Y-22100D01*
X50871Y-22142D02*
X50871Y-22000D01*
X50571Y-22000D01*
X50571Y-22142D01*
X50871Y-22271D02*
X50571Y-22271D01*
X50571Y-22342D01*
X50585Y-22385D01*
X50614Y-22414D01*
X50642Y-22428D01*
X50700Y-22442D01*
X50742Y-22442D01*
X50800Y-22428D01*
X50828Y-22414D01*
X50857Y-22385D01*
X50871Y-22342D01*
X50871Y-22271D01*
X50871Y-22971D02*
X50728Y-22871D01*
X50871Y-22800D02*
X50571Y-22800D01*
X50571Y-22914D01*
X50585Y-22942D01*
X50600Y-22957D01*
X50628Y-22971D01*
X50671Y-22971D01*
X50700Y-22957D01*
X50714Y-22942D01*
X50728Y-22914D01*
X50728Y-22800D01*
X50571Y-23071D02*
X50871Y-23271D01*
X50571Y-23271D02*
X50871Y-23071D01*
X45871Y-22278D02*
X45571Y-22278D01*
X45571Y-22350D01*
X45585Y-22392D01*
X45614Y-22421D01*
X45642Y-22435D01*
X45700Y-22450D01*
X45742Y-22450D01*
X45800Y-22435D01*
X45828Y-22421D01*
X45857Y-22392D01*
X45871Y-22350D01*
X45871Y-22278D01*
X45600Y-22564D02*
X45585Y-22578D01*
X45571Y-22607D01*
X45571Y-22678D01*
X45585Y-22707D01*
X45600Y-22721D01*
X45628Y-22735D01*
X45657Y-22735D01*
X45700Y-22721D01*
X45871Y-22550D01*
X45871Y-22735D01*
X44871Y-21935D02*
X44871Y-21792D01*
X44571Y-21792D01*
X44714Y-22035D02*
X44714Y-22135D01*
X44871Y-22178D02*
X44871Y-22035D01*
X44571Y-22035D01*
X44571Y-22178D01*
X44871Y-22307D02*
X44571Y-22307D01*
X44571Y-22378D01*
X44585Y-22421D01*
X44614Y-22450D01*
X44642Y-22464D01*
X44700Y-22478D01*
X44742Y-22478D01*
X44800Y-22464D01*
X44828Y-22450D01*
X44857Y-22421D01*
X44871Y-22378D01*
X44871Y-22307D01*
X44571Y-22792D02*
X44571Y-22964D01*
X44871Y-22878D02*
X44571Y-22878D01*
X44571Y-23035D02*
X44871Y-23235D01*
X44571Y-23235D02*
X44871Y-23035D01*
X47471Y-23621D02*
X47471Y-23321D01*
X47400Y-23321D01*
X47357Y-23335D01*
X47328Y-23364D01*
X47314Y-23392D01*
X47300Y-23450D01*
X47300Y-23492D01*
X47314Y-23550D01*
X47328Y-23578D01*
X47357Y-23607D01*
X47400Y-23621D01*
X47471Y-23621D01*
X47200Y-23321D02*
X47014Y-23321D01*
X47114Y-23435D01*
X47071Y-23435D01*
X47042Y-23450D01*
X47028Y-23464D01*
X47014Y-23492D01*
X47014Y-23564D01*
X47028Y-23592D01*
X47042Y-23607D01*
X47071Y-23621D01*
X47157Y-23621D01*
X47185Y-23607D01*
X47200Y-23592D01*
X47442Y-24621D02*
X47585Y-24621D01*
X47585Y-24321D01*
X47342Y-24464D02*
X47242Y-24464D01*
X47200Y-24621D02*
X47342Y-24621D01*
X47342Y-24321D01*
X47200Y-24321D01*
X47071Y-24621D02*
X47071Y-24321D01*
X47000Y-24321D01*
X46957Y-24335D01*
X46928Y-24364D01*
X46914Y-24392D01*
X46900Y-24450D01*
X46900Y-24492D01*
X46914Y-24550D01*
X46928Y-24578D01*
X46957Y-24607D01*
X47000Y-24621D01*
X47071Y-24621D01*
M02*
